{
  "source": "C:\\Users\\Peter\\Desktop\\stuff\\MIUN\\quantitative_research\\video_compression\\videos\\BVI-HD\\SmokeGuns_1920x1080_60fps.mp4",
  "output": "C:\\Users\\Peter\\Desktop\\stuff\\MIUN\\quantitative_research\\video_compression\\compressed_videos\\BVI-HD\\av1\\12\\SmokeGuns_1920x1080_60fps_av1.mkv",
  "codec": "av1",
  "ok": "Input #0, mov,mp4,m4a,3gp,3g2,mj2, from 'C:\\Users\\Peter\\Desktop\\stuff\\MIUN\\quantitative_research\\video_compression\\videos\\BVI-HD\\SmokeGuns_1920x1080_60fps.mp4':\n  Metadata:\n    major_brand     : isom\n    minor_version   : 512\n    compatible_brands: isomiso2avc1mp41\n    encoder         : Lavf54.28.101\n  Duration: 00:00:05.00, start: 0.000000, bitrate: 384353 kb/s\n  Stream #0:0[0x1](und): Video: h264 (High 4:4:4 Predictive) (avc1 / 0x31637661), yuv420p(progressive), 1920x1080, 384348 kb/s, 60 fps, 60 tbr, 60 tbn (default)\n    Metadata:\n      handler_name    : VideoHandler\n      vendor_id       : [0][0][0][0]\n[out#0/matroska @ 000002ab85c91140] Codec AVOption b:a (set bitrate (in bits/s)) has not been used for any stream. The most likely reason is either wrong type (e.g. a video option with no video streams) or that it is a private option of some decoder which was not actually used for any stream.\nStream mapping:\n  Stream #0:0 -> #0:0 (h264 (native) -> av1 (libsvtav1))\nPress [q] to stop, [?] for help\nSvt[info]: -------------------------------------------\nSvt[info]: SVT [version]:\tSVT-AV1 Encoder Lib v3.1.0-19-g6ecfe8ec\nSvt[info]: SVT [build]  :\tGCC 15.2.0\t 64 bit\nSvt[info]: LIB Build date: Aug 17 2025 11:37:13\nSvt[info]: -------------------------------------------\nSvt[info]: Level of Parallelism: 5\nSvt[info]: Number of PPCS 93\nSvt[info]: [asm level on system : up to avx2]\nSvt[info]: [asm level selected : up to avx2]\nSvt[info]: -------------------------------------------\nSvt[info]: SVT [config]: main profile\ttier (auto)\tlevel (auto)\nSvt[info]: SVT [config]: width / height / fps numerator / fps denominator \t\t: 1920 / 1080 / 60 / 1\nSvt[info]: SVT [config]: bit-depth / color format \t\t\t\t\t: 8 / YUV420\nSvt[info]: SVT [config]: preset / tune / pred struct \t\t\t\t\t: 4 / PSNR / random access\nSvt[info]: SVT [config]: gop size / mini-gop size / key-frame type \t\t\t: 321 / 16 / key frame\nSvt[info]: SVT [config]: BRC mode / target bitrate (kbps)\t\t\t\t: VBR / 12000 \nSvt[info]: SVT [config]: AQ mode / Variance Boost \t\t\t\t\t: 2 / 0\nSvt[info]: SVT [config]: sharpness / luminance-based QP bias \t\t\t\t: 0 / 0\nSvt[info]: SVT [config]: QP scale compress strength \t\t\t\t\t: 0\nSvt[info]: -------------------------------------------\nOutput #0, matroska, to 'C:\\Users\\Peter\\Desktop\\stuff\\MIUN\\quantitative_research\\video_compression\\compressed_videos\\BVI-HD\\av1\\12\\SmokeGuns_1920x1080_60fps_av1.mkv':\n  Metadata:\n    major_brand     : isom\n    minor_version   : 512\n    compatible_brands: isomiso2avc1mp41\n    encoder         : Lavf62.3.100\n  Stream #0:0(und): Video: av1 (AV01 / 0x31305641), yuv420p(tv, progressive), 1920x1080, q=2-31, 12000 kb/s, 60 fps, 1k tbn (default)\n    Metadata:\n      encoder         : Lavc62.11.100 libsvtav1\n      handler_name    : VideoHandler\n      vendor_id       : [0][0][0][0]\n    Side data:\n      cpb: bitrate max/min/avg: 0/0/12000000 buffer size: 12000000 vbv_delay: N/A\nframe=    0 fps=0.0 q=0.0 size=       0KiB time=N/A bitrate=N/A speed=N/A elapsed=0:00:02.07    \nframe=    0 fps=0.0 q=0.0 size=       0KiB time=N/A bitrate=N/A speed=N/A elapsed=0:00:02.61    \nframe=    0 fps=0.0 q=0.0 size=       0KiB time=N/A bitrate=N/A speed=N/A elapsed=0:00:03.16    \nframe=    0 fps=0.0 q=0.0 size=       0KiB time=N/A bitrate=N/A speed=N/A elapsed=0:00:03.71    \nframe=    0 fps=0.0 q=0.0 size=       0KiB time=N/A bitrate=N/A speed=N/A elapsed=0:00:04.30    \nframe=    0 fps=0.0 q=0.0 size=       0KiB time=N/A bitrate=N/A speed=N/A elapsed=0:00:04.84    \nframe=    0 fps=0.0 q=0.0 size=       0KiB time=N/A bitrate=N/A speed=N/A elapsed=0:00:05.39    \nframe=    1 fps=0.2 q=5.0 size=       1KiB time=00:00:00.00 bitrate=N/A speed=   0x elapsed=0:00:05.92    \nframe=    1 fps=0.2 q=5.0 size=       1KiB time=00:00:00.00 bitrate=N/A speed=   0x elapsed=0:00:06.45    \nframe=    5 fps=0.7 q=19.0 size=       1KiB time=00:00:00.06 bitrate=  85.4kbits/s speed=0.00953x elapsed=0:00:06.99    \nframe=    8 fps=1.1 q=20.0 size=       1KiB time=00:00:00.11 bitrate=  48.8kbits/s speed=0.0155x elapsed=0:00:07.51    \nframe=   11 fps=1.4 q=17.0 size=       1KiB time=00:00:00.16 bitrate=  34.2kbits/s speed=0.0207x elapsed=0:00:08.06    \nframe=   14 fps=1.6 q=17.0 size=       1KiB time=00:00:00.21 bitrate=  26.3kbits/s speed=0.0252x elapsed=0:00:08.59    \nframe=   19 fps=2.1 q=18.0 size=       1KiB time=00:00:00.30 bitrate=  19.0kbits/s speed=0.0329x elapsed=0:00:09.13    \nframe=   23 fps=2.4 q=16.0 size=       1KiB time=00:00:00.36 bitrate=  15.5kbits/s speed=0.0379x elapsed=0:00:09.68    \nframe=   26 fps=2.5 q=16.0 size=       1KiB time=00:00:00.41 bitrate=  13.7kbits/s speed=0.0408x elapsed=0:00:10.22    \nframe=   29 fps=2.7 q=15.0 size=       1KiB time=00:00:00.46 bitrate=  12.2kbits/s speed=0.0435x elapsed=0:00:10.73    \nframe=   35 fps=3.1 q=18.0 size=       1KiB time=00:00:00.56 bitrate=  10.1kbits/s speed=0.0502x elapsed=0:00:11.28    \nframe=   39 fps=3.3 q=17.0 size=       1KiB time=00:00:00.63 bitrate=   9.0kbits/s speed=0.0537x elapsed=0:00:11.79    \nframe=   43 fps=3.5 q=18.0 size=       1KiB time=00:00:00.70 bitrate=   8.1kbits/s speed=0.0568x elapsed=0:00:12.33    \nframe=   47 fps=3.6 q=18.0 size=       1KiB time=00:00:00.76 bitrate=   7.4kbits/s speed=0.0595x elapsed=0:00:12.87    \nframe=   51 fps=3.8 q=18.0 size=       1KiB time=00:00:00.83 bitrate=   6.8kbits/s speed=0.0622x elapsed=0:00:13.40    \nframe=   55 fps=3.9 q=17.0 size=       1KiB time=00:00:00.90 bitrate=   6.3kbits/s speed=0.0645x elapsed=0:00:13.95    \nframe=   59 fps=4.1 q=18.0 size=       1KiB time=00:00:00.96 bitrate=   5.9kbits/s speed=0.0667x elapsed=0:00:14.49    \nframe=   64 fps=4.3 q=19.0 size=       1KiB time=00:00:01.05 bitrate=   5.4kbits/s speed=0.0698x elapsed=0:00:15.03    \nframe=   68 fps=4.4 q=14.0 size=       1KiB time=00:00:01.11 bitrate=   5.1kbits/s speed=0.0718x elapsed=0:00:15.56    \nframe=   71 fps=4.4 q=17.0 size=       1KiB time=00:00:01.16 bitrate=   4.9kbits/s speed=0.0726x elapsed=0:00:16.07    \nframe=   76 fps=4.6 q=18.0 size=       1KiB time=00:00:01.23 bitrate=   4.6kbits/s speed=0.0741x elapsed=0:00:16.63    \nframe=   80 fps=4.7 q=20.0 size=       1KiB time=00:00:01.30 bitrate=   4.4kbits/s speed=0.0756x elapsed=0:00:17.18    \nframe=   83 fps=4.7 q=20.0 size=       1KiB time=00:00:01.36 bitrate=   4.2kbits/s speed=0.077x elapsed=0:00:17.75    \nframe=   86 fps=4.7 q=19.0 size=       1KiB time=00:00:01.41 bitrate=   4.0kbits/s speed=0.0774x elapsed=0:00:18.31    \nframe=   87 fps=4.6 q=17.0 size=       1KiB time=00:00:01.43 bitrate=   4.0kbits/s speed=0.076x elapsed=0:00:18.86    \nframe=   91 fps=4.7 q=19.0 size=       1KiB time=00:00:01.48 bitrate=   3.8kbits/s speed=0.0763x elapsed=0:00:19.44    \nframe=   93 fps=4.6 q=16.0 size=       1KiB time=00:00:01.51 bitrate=   3.8kbits/s speed=0.0756x elapsed=0:00:20.06    \nframe=   97 fps=4.7 q=6.0 size=       1KiB time=00:00:01.58 bitrate=   3.6kbits/s speed=0.0766x elapsed=0:00:20.68    \nframe=   99 fps=4.7 q=19.0 size=       1KiB time=00:00:01.63 bitrate=   3.5kbits/s speed=0.0767x elapsed=0:00:21.28    \nframe=  102 fps=4.7 q=19.0 size=       1KiB time=00:00:01.68 bitrate=   3.4kbits/s speed=0.0771x elapsed=0:00:21.83    \nframe=  103 fps=4.6 q=17.0 size=       1KiB time=00:00:01.70 bitrate=   3.4kbits/s speed=0.076x elapsed=0:00:22.38    \nframe=  107 fps=4.6 q=18.0 size=       1KiB time=00:00:01.75 bitrate=   3.3kbits/s speed=0.0759x elapsed=0:00:23.04    \nframe=  109 fps=4.6 q=15.0 size=       1KiB time=00:00:01.80 bitrate=   3.2kbits/s speed=0.0761x elapsed=0:00:23.66    \nframe=  113 fps=4.7 q=6.0 size=       1KiB time=00:00:01.86 bitrate=   3.1kbits/s speed=0.0771x elapsed=0:00:24.22    \nframe=  115 fps=4.6 q=20.0 size=       1KiB time=00:00:01.90 bitrate=   3.0kbits/s speed=0.0768x elapsed=0:00:24.74    \nframe=  118 fps=4.7 q=20.0 size=       1KiB time=00:00:01.95 bitrate=   2.9kbits/s speed=0.0771x elapsed=0:00:25.29    \nframe=  121 fps=4.7 q=14.0 size=       1KiB time=00:00:02.00 bitrate=   2.8kbits/s speed=0.0773x elapsed=0:00:25.85    \nframe=  123 fps=4.7 q=19.0 size=       1KiB time=00:00:02.03 bitrate=   2.8kbits/s speed=0.077x elapsed=0:00:26.41    \nframe=  128 fps=4.8 q=15.0 size=       1KiB time=00:00:02.11 bitrate=   2.7kbits/s speed=0.0786x elapsed=0:00:26.92    \nframe=  133 fps=4.8 q=19.0 size=       1KiB time=00:00:02.20 bitrate=   2.6kbits/s speed=0.0801x elapsed=0:00:27.46    \nframe=  136 fps=4.9 q=22.0 size=       1KiB time=00:00:02.25 bitrate=   2.5kbits/s speed=0.0804x elapsed=0:00:28.00    \nframe=  139 fps=4.9 q=20.0 size=       1KiB time=00:00:02.30 bitrate=   2.5kbits/s speed=0.0807x elapsed=0:00:28.51    \nframe=  145 fps=5.0 q=6.0 size=       1KiB time=00:00:02.40 bitrate=   2.4kbits/s speed=0.0827x elapsed=0:00:29.02    \nframe=  149 fps=5.0 q=19.0 size=       1KiB time=00:00:02.46 bitrate=   2.3kbits/s speed=0.0835x elapsed=0:00:29.55    \nframe=  151 fps=5.0 q=17.0 size=       1KiB time=00:00:02.50 bitrate=   2.3kbits/s speed=0.0831x elapsed=0:00:30.07    \nframe=  157 fps=5.1 q=16.0 size=       1KiB time=00:00:02.60 bitrate=   2.2kbits/s speed=0.085x elapsed=0:00:30.58    \nframe=  163 fps=5.2 q=21.0 size=       1KiB time=00:00:02.70 bitrate=   2.1kbits/s speed=0.0868x elapsed=0:00:31.11    \nframe=  167 fps=5.3 q=17.0 size=       1KiB time=00:00:02.76 bitrate=   2.1kbits/s speed=0.0875x elapsed=0:00:31.63    \nframe=  171 fps=5.3 q=19.0 size=       1KiB time=00:00:02.83 bitrate=   2.0kbits/s speed=0.0881x elapsed=0:00:32.14    \nframe=  177 fps=5.4 q=7.0 size=       1KiB time=00:00:02.93 bitrate=   1.9kbits/s speed=0.0898x elapsed=0:00:32.66    \nframe=  181 fps=5.5 q=19.0 size=       1KiB time=00:00:03.00 bitrate=   1.9kbits/s speed=0.0904x elapsed=0:00:33.18    \nframe=  185 fps=5.5 q=15.0 size=       1KiB time=00:00:03.06 bitrate=   1.9kbits/s speed=0.0909x elapsed=0:00:33.71    \nframe=  189 fps=5.5 q=15.0 size=       1KiB time=00:00:03.13 bitrate=   1.8kbits/s speed=0.0915x elapsed=0:00:34.24    \nframe=  195 fps=5.6 q=20.0 size=       1KiB time=00:00:03.23 bitrate=   1.8kbits/s speed=0.093x elapsed=0:00:34.77    \nframe=  199 fps=5.6 q=16.0 size=       1KiB time=00:00:03.30 bitrate=   1.7kbits/s speed=0.0935x elapsed=0:00:35.29    \nframe=  205 fps=5.7 q=15.0 size=       1KiB time=00:00:03.40 bitrate=   1.7kbits/s speed=0.0949x elapsed=0:00:35.82    \nframe=  213 fps=5.9 q=18.0 size=    5120KiB time=00:00:03.53 bitrate=11870.7kbits/s speed=0.0972x elapsed=0:00:36.35    \nframe=  217 fps=5.9 q=14.0 size=    5120KiB time=00:00:03.60 bitrate=11650.8kbits/s speed=0.0976x elapsed=0:00:36.88    \nframe=  221 fps=5.9 q=15.0 size=    5120KiB time=00:00:03.66 bitrate=11439.0kbits/s speed=0.0981x elapsed=0:00:37.39    \nframe=  229 fps=6.0 q=18.0 size=    5120KiB time=00:00:03.80 bitrate=11037.6kbits/s speed= 0.1x elapsed=0:00:37.92    \nframe=  233 fps=6.1 q=14.0 size=    5120KiB time=00:00:03.86 bitrate=10847.3kbits/s speed=0.101x elapsed=0:00:38.44    \nframe=  241 fps=6.2 q=6.0 size=    5120KiB time=00:00:03.96 bitrate=10573.9kbits/s speed=0.102x elapsed=0:00:38.96    \nframe=  245 fps=6.2 q=18.0 size=    5120KiB time=00:00:04.06 bitrate=10313.9kbits/s speed=0.103x elapsed=0:00:39.49    \nframe=  251 fps=6.3 q=18.0 size=    5120KiB time=00:00:04.16 bitrate=10066.3kbits/s speed=0.104x elapsed=0:00:40.01    \nframe=  257 fps=6.3 q=6.0 size=    5120KiB time=00:00:04.26 bitrate=9830.4kbits/s speed=0.105x elapsed=0:00:40.54    \nframe=  265 fps=6.5 q=14.0 size=    5120KiB time=00:00:04.40 bitrate=9532.5kbits/s speed=0.107x elapsed=0:00:41.07    \nframe=  269 fps=6.5 q=15.0 size=    5120KiB time=00:00:04.46 bitrate=9390.2kbits/s speed=0.107x elapsed=0:00:41.60    \nframe=  275 fps=6.5 q=22.0 size=    5120KiB time=00:00:04.56 bitrate=9184.6kbits/s speed=0.108x elapsed=0:00:42.14    \nframe=  281 fps=6.6 q=17.0 size=    5120KiB time=00:00:04.66 bitrate=8987.8kbits/s speed=0.109x elapsed=0:00:42.66    \nframe=  293 fps=6.8 q=17.0 size=    5120KiB time=00:00:04.86 bitrate=8618.4kbits/s speed=0.113x elapsed=0:00:43.23    \n[out#0/matroska @ 000002ab85c91140] video:6570KiB audio:0KiB subtitle:0KiB other streams:0KiB global headers:0KiB muxing overhead: 0.032792%\nframe=  300 fps=6.9 q=22.0 Lsize=    6572KiB time=00:00:04.98 bitrate=10803.1kbits/s speed=0.115x elapsed=0:00:43.31    \n",
  "seconds": 43.85905838012695,
  "probe_out": {}
}